<?xml version="1.0" standalone="no"?>
<!DOCTYPE svg PUBLIC "-//W3C//DTD SVG 20010904//EN"
 "http://www.w3.org/TR/2001/REC-SVG-20010904/DTD/svg10.dtd">
<svg version="1.0" xmlns="http://www.w3.org/2000/svg"
 width="200.000000pt" height="200.000000pt" viewBox="0 0 200.000000 200.000000"
 preserveAspectRatio="xMidYMid meet">
<metadata>
Created by potrace 1.16, written by Peter Selinger 2001-2019
</metadata>
<g transform="translate(0.000000,200.000000) scale(0.100000,-0.100000)"
fill="#000000" stroke="none">
<path d="M815 1904 c-92 -49 -130 -81 -153 -128 -22 -44 -23 -50 -12 -129 7
-45 13 -101 14 -124 1 -23 5 -45 9 -49 4 -4 7 49 7 118 0 116 2 128 28 178 15
30 39 63 54 73 25 19 27 19 44 3 17 -18 49 -18 116 -1 53 14 95 -3 135 -52 34
-41 38 -52 36 -94 -1 -27 4 -64 12 -83 8 -20 15 -55 15 -80 0 -26 6 -51 15
-60 8 -8 16 -25 16 -38 1 -17 3 -18 6 -5 2 9 9 17 14 17 6 0 7 -5 3 -12 -4 -7
-3 -8 5 -4 6 4 9 12 6 17 -4 5 1 19 9 31 20 28 20 62 2 80 -10 11 -11 19 -4
33 18 32 -10 152 -49 212 -38 58 -77 86 -149 108 -73 22 -122 19 -179 -11z"/>
<path d="M940 1647 c-41 -14 -80 -38 -80 -50 0 -4 4 -6 9 -3 5 3 9 -17 9 -45
1 -28 7 -59 14 -68 38 -47 38 -55 -4 -76 -42 -20 -45 -38 -7 -43 13 -2 28 -7
32 -11 11 -11 -67 -23 -98 -15 -15 4 -25 2 -25 -4 0 -6 24 -14 54 -17 41 -5
53 -11 49 -21 -3 -8 -14 -14 -26 -14 -41 0 -7 -13 40 -15 41 -2 48 -5 45 -21
-2 -10 -15 -30 -29 -42 -21 -19 -35 -23 -69 -20 l-43 3 27 -21 c15 -12 38 -30
51 -41 l24 -19 -27 -27 c-26 -26 -56 -84 -56 -107 0 -6 11 -3 24 6 16 10 26
27 28 47 2 25 13 39 53 67 66 47 130 111 134 135 13 96 4 185 -20 185 -5 0
-14 -10 -20 -22 -8 -14 -14 -18 -17 -10 -2 6 -12 12 -23 12 -17 0 -36 26 -66
92 -10 23 -9 31 8 53 21 25 13 35 -9 13 -9 -9 -12 -7 -12 10 0 16 10 27 33 37
39 16 63 2 33 -20 -11 -8 -16 -21 -13 -30 4 -8 2 -15 -3 -15 -6 0 -10 -4 -10
-10 0 -5 7 -7 15 -4 8 4 15 1 15 -5 0 -19 36 -12 64 14 14 13 26 31 26 40 0
34 -51 95 -80 94 -8 0 -31 -6 -50 -12z"/>
<path d="M1121 1234 c-1 -23 -8 -58 -16 -77 -8 -20 -15 -53 -15 -73 l0 -37 24
22 24 22 6 -83 c3 -46 8 -153 12 -238 l6 -156 -72 -222 c-40 -122 -76 -219
-80 -217 -4 3 -24 44 -45 92 -20 49 -50 115 -66 148 -20 42 -25 61 -17 66 8 5
1 31 -25 87 -25 55 -41 111 -53 183 -9 59 -29 134 -45 173 -20 47 -29 84 -28
120 0 36 3 45 8 31 5 -11 7 -33 4 -50 -2 -19 3 -41 16 -60 l21 -30 -4 51 c-3
29 -10 71 -16 94 -6 23 -13 71 -15 107 -2 36 -6 67 -8 70 -3 2 -13 -9 -22 -25
-12 -19 -43 -41 -99 -67 -157 -75 -231 -106 -279 -116 -52 -12 -49 -6 -67
-128 -6 -41 -16 -81 -22 -88 -5 -7 -7 -20 -4 -29 3 -9 1 -35 -5 -58 -6 -22
-15 -59 -21 -81 -5 -22 -14 -50 -19 -63 -5 -12 -14 -78 -20 -145 -6 -67 -16
-128 -21 -134 -6 -8 -7 -36 -3 -72 4 -39 3 -61 -4 -66 -13 -8 -8 -116 8 -158
l11 -27 135 0 136 0 -1 53 c-1 28 1 66 5 83 5 21 2 34 -8 43 -18 14 -12 77 9
102 8 8 14 29 15 45 1 22 5 16 15 -26 9 -34 14 -103 14 -177 l-1 -123 532 0
532 0 -7 69 c-3 37 -12 102 -20 142 -18 91 -28 195 -17 183 4 -5 22 -43 41
-84 18 -41 41 -84 50 -95 13 -15 16 -26 9 -43 -5 -14 -4 -42 2 -72 7 -34 7
-55 0 -69 -6 -11 -11 -22 -11 -25 0 -3 62 -6 138 -6 l138 0 12 89 c17 126 16
136 -15 160 -22 16 -24 20 -10 21 33 0 18 70 -17 70 -20 1 -20 1 -2 15 22 17
15 45 -15 52 -14 4 -17 8 -8 13 18 12 3 39 -27 50 -26 10 -26 11 -8 24 15 11
16 17 6 29 -7 8 -10 22 -6 31 5 12 -2 19 -24 27 -23 8 -29 15 -25 30 6 22 -22
59 -44 59 -11 0 -10 5 3 25 16 24 16 25 -9 25 -21 0 -24 4 -19 22 3 14 1 19
-6 14 -7 -4 -13 7 -18 29 -4 22 -12 36 -23 37 -9 0 -21 2 -28 2 -18 2 -28 16
-12 16 8 0 23 10 33 22 20 23 21 21 -27 53 -11 7 -17 35 -22 90 -3 43 -8 81
-10 84 -3 2 -5 -1 -5 -8 0 -7 -5 -9 -11 -5 -7 4 -27 8 -46 9 -25 1 -33 -2 -29
-12 6 -15 -20 -18 -29 -2 -4 6 -13 8 -19 6 -7 -3 -18 3 -24 14 -7 10 -31 28
-54 40 -23 12 -54 30 -68 39 -14 10 -35 21 -48 25 l-23 7 17 -34 c10 -18 19
-44 19 -58 1 -14 4 -35 9 -47 5 -16 3 -23 -6 -23 -26 0 -54 29 -66 67 -6 21
-20 67 -31 103 -19 65 -19 65 -20 24z m-678 -291 c-1 -32 -3 -58 -3 -58 -1 0
-3 -8 -5 -18 -2 -10 2 -16 9 -15 17 4 19 -7 12 -53 -5 -28 -2 -46 9 -62 19
-27 19 -41 1 -34 -8 3 -17 1 -20 -6 -5 -9 -7 -9 -12 1 -3 6 -11 9 -16 6 -7 -4
-8 -2 -4 4 4 7 16 12 27 12 10 0 19 4 19 9 0 6 -9 8 -20 6 -11 -2 -18 0 -15 6
4 5 2 9 -3 9 -6 0 -8 9 -5 20 3 11 0 20 -6 20 -6 0 -11 -9 -11 -20 0 -13 -5
-18 -16 -13 -10 3 -12 9 -6 15 13 13 3 48 -13 48 -8 0 -16 14 -19 30 -3 17 -9
44 -12 61 -4 22 -3 29 5 25 6 -4 9 -12 6 -17 -3 -5 1 -6 9 -3 9 3 16 12 16 20
0 16 16 19 25 4 10 -15 32 5 39 35 4 14 7 25 9 25 1 0 1 -26 0 -57z m105 -58
c12 19 12 19 10 -5 -2 -14 4 -30 12 -37 10 -9 11 -12 3 -13 -7 0 -13 -7 -13
-15 0 -8 -8 -15 -17 -15 -14 0 -15 -2 -5 -9 14 -9 13 -32 -3 -43 -6 -5 -4 -12
5 -18 8 -5 10 -10 5 -10 -6 0 -11 -9 -11 -20 0 -11 4 -20 9 -20 4 0 5 -4 2
-10 -10 -16 -25 -12 -26 8 -1 14 -2 14 -6 -2 -3 -11 -11 -26 -19 -34 -12 -11
-14 -11 -14 2 0 9 -4 16 -10 16 -5 0 -7 -6 -4 -13 3 -8 -1 -14 -9 -14 -9 0
-12 7 -9 19 3 13 11 18 23 15 11 -3 22 -1 25 4 3 5 -1 9 -8 9 -10 0 -9 3 2 10
8 5 12 12 8 15 -3 4 -2 20 2 36 7 22 5 29 -6 29 -8 0 -14 -5 -14 -12 0 -6 -2
-9 -5 -6 -12 11 8 68 24 68 14 0 14 -2 1 -10 -12 -7 -12 -12 -2 -22 13 -13 13
-18 15 89 1 35 -1 63 -5 63 -5 0 -8 -22 -8 -49 0 -28 -5 -53 -11 -57 -8 -5
-10 3 -7 25 3 21 0 31 -9 31 -7 0 -13 5 -13 10 0 6 7 10 15 10 8 0 15 9 15 20
0 11 7 20 15 20 8 0 16 6 17 13 1 6 4 -13 7 -43 5 -49 7 -53 19 -35z"/>
</g>
</svg>
